<svg width="16" height="16" viewBox="0 0 16 16" fill="none" xmlns="http://www.w3.org/2000/svg">
<mask id="mask0_6_94" style="mask-type:alpha" maskUnits="userSpaceOnUse" x="0" y="0" width="16" height="16">
<rect width="16" height="16" fill="#D9D9D9"/>
</mask>
<g mask="url(#mask0_6_94)">
<path d="M8 10C8.55555 10 9.02778 9.80558 9.41666 9.41669C9.80555 9.0278 10 8.55558 10 8.00002C10 7.44447 9.80555 6.97224 9.41666 6.58335C9.02778 6.19447 8.55555 6.00002 8 6.00002C7.44444 6.00002 6.97222 6.19447 6.58333 6.58335C6.19444 6.97224 6 7.44447 6 8.00002C6 8.55558 6.19444 9.0278 6.58333 9.41669C6.97222 9.80558 7.44444 10 8 10ZM8 11.3334C7.07778 11.3334 6.29178 11.0082 5.642 10.358C4.99178 9.70824 4.66666 8.92224 4.66666 8.00002C4.66666 7.0778 4.99178 6.29158 5.642 5.64135C6.29178 4.99158 7.07778 4.66669 8 4.66669C8.92222 4.66669 9.70844 4.99158 10.3587 5.64135C11.0084 6.29158 11.3333 7.0778 11.3333 8.00002C11.3333 8.92224 11.0084 9.70824 10.3587 10.358C9.70844 11.0082 8.92222 11.3334 8 11.3334ZM1.33333 8.66669C1.14444 8.66669 0.98622 8.60269 0.858664 8.47469C0.730664 8.34713 0.666664 8.18891 0.666664 8.00002C0.666664 7.81113 0.730664 7.65269 0.858664 7.52469C0.98622 7.39713 1.14444 7.33335 1.33333 7.33335H2.66666C2.85555 7.33335 3.014 7.39713 3.142 7.52469C3.26955 7.65269 3.33333 7.81113 3.33333 8.00002C3.33333 8.18891 3.26955 8.34713 3.142 8.47469C3.014 8.60269 2.85555 8.66669 2.66666 8.66669H1.33333ZM13.3333 8.66669C13.1444 8.66669 12.9862 8.60269 12.8587 8.47469C12.7307 8.34713 12.6667 8.18891 12.6667 8.00002C12.6667 7.81113 12.7307 7.65269 12.8587 7.52469C12.9862 7.39713 13.1444 7.33335 13.3333 7.33335H14.6667C14.8556 7.33335 15.0138 7.39713 15.1413 7.52469C15.2693 7.65269 15.3333 7.81113 15.3333 8.00002C15.3333 8.18891 15.2693 8.34713 15.1413 8.47469C15.0138 8.60269 14.8556 8.66669 14.6667 8.66669H13.3333ZM8 3.33335C7.81111 3.33335 7.65289 3.26935 7.52533 3.14135C7.39733 3.0138 7.33333 2.85558 7.33333 2.66669V1.33335C7.33333 1.14446 7.39733 0.98602 7.52533 0.85802C7.65289 0.730465 7.81111 0.666687 8 0.666687C8.18889 0.666687 8.34733 0.730465 8.47533 0.85802C8.60289 0.98602 8.66666 1.14446 8.66666 1.33335V2.66669C8.66666 2.85558 8.60289 3.0138 8.47533 3.14135C8.34733 3.26935 8.18889 3.33335 8 3.33335ZM8 15.3334C7.81111 15.3334 7.65289 15.2694 7.52533 15.1414C7.39733 15.0138 7.33333 14.8556 7.33333 14.6667V13.3334C7.33333 13.1445 7.39733 12.9862 7.52533 12.8587C7.65289 12.7307 7.81111 12.6667 8 12.6667C8.18889 12.6667 8.34733 12.7307 8.47533 12.8587C8.60289 12.9862 8.66666 13.1445 8.66666 13.3334V14.6667C8.66666 14.8556 8.60289 15.0138 8.47533 15.1414C8.34733 15.2694 8.18889 15.3334 8 15.3334ZM3.76666 4.70002L3.05 4.00002C2.91666 3.8778 2.85266 3.72224 2.858 3.53335C2.86378 3.34447 2.92778 3.18335 3.05 3.05002C3.18333 2.91669 3.34444 2.85002 3.53333 2.85002C3.72222 2.85002 3.87778 2.91669 4 3.05002L4.7 3.76669C4.82222 3.90002 4.88333 4.05558 4.88333 4.23335C4.88333 4.41113 4.82222 4.56669 4.7 4.70002C4.57778 4.83335 4.42511 4.89713 4.242 4.89135C4.05844 4.88602 3.9 4.82224 3.76666 4.70002ZM12 12.95L11.3 12.2334C11.1778 12.1 11.1167 11.9418 11.1167 11.7587C11.1167 11.5751 11.1778 11.4222 11.3 11.3C11.4222 11.1667 11.5751 11.1029 11.7587 11.1087C11.9418 11.114 12.1 11.1778 12.2333 11.3L12.95 12C13.0833 12.1222 13.1473 12.2778 13.142 12.4667C13.1362 12.6556 13.0722 12.8167 12.95 12.95C12.8167 13.0834 12.6556 13.15 12.4667 13.15C12.2778 13.15 12.1222 13.0834 12 12.95ZM11.3 4.70002C11.1667 4.5778 11.1029 4.42491 11.1087 4.24135C11.114 4.05824 11.1778 3.90002 11.3 3.76669L12 3.05002C12.1222 2.91669 12.2778 2.85269 12.4667 2.85802C12.6556 2.8638 12.8167 2.9278 12.95 3.05002C13.0833 3.18335 13.15 3.34447 13.15 3.53335C13.15 3.72224 13.0833 3.8778 12.95 4.00002L12.2333 4.70002C12.1 4.82224 11.9444 4.88335 11.7667 4.88335C11.5889 4.88335 11.4333 4.82224 11.3 4.70002ZM3.05 12.95C2.91666 12.8167 2.85 12.6556 2.85 12.4667C2.85 12.2778 2.91666 12.1222 3.05 12L3.76666 11.3C3.9 11.1778 4.05844 11.1167 4.242 11.1167C4.42511 11.1167 4.57778 11.1778 4.7 11.3C4.83333 11.4222 4.89733 11.5751 4.892 11.7587C4.88622 11.9418 4.82222 12.1 4.7 12.2334L4 12.95C3.87778 13.0834 3.72222 13.1471 3.53333 13.1414C3.34444 13.136 3.18333 13.0722 3.05 12.95Z" fill="#1C1B1F"/>
</g>
</svg>
