<svg width="16" height="16" viewBox="0 0 16 16" fill="none" xmlns="http://www.w3.org/2000/svg">
<mask id="mask0_6_133" style="mask-type:alpha" maskUnits="userSpaceOnUse" x="0" y="0" width="16" height="16">
<rect width="16" height="16" fill="#D9D9D9"/>
</mask>
<g mask="url(#mask0_6_133)">
<path d="M10.2 11.1333L7.33337 8.26667V4.66667H8.6667V7.73334L11.1334 10.2L10.2 11.1333ZM1.90003 10.7167C1.75559 10.3944 1.63892 10.0611 1.55003 9.71667C1.46114 9.37222 1.40003 9.02222 1.3667 8.66667H2.7167C2.75003 8.9 2.79714 9.13334 2.85803 9.36667C2.91937 9.6 2.99448 9.82778 3.08337 10.05L1.90003 10.7167ZM1.3667 7.33333C1.40003 6.97778 1.46114 6.62489 1.55003 6.27467C1.63892 5.92489 1.76114 5.58889 1.9167 5.26667L3.08337 5.93333C2.99448 6.15556 2.91937 6.38334 2.85803 6.61667C2.79714 6.85 2.75003 7.08889 2.7167 7.33333H1.3667ZM4.1167 13.4333C3.8167 13.2111 3.53892 12.9693 3.28337 12.708C3.02781 12.4471 2.78892 12.1667 2.5667 11.8667L3.73337 11.2C3.88892 11.4 4.05292 11.586 4.22537 11.758C4.39737 11.9304 4.58337 12.0944 4.78337 12.25L4.1167 13.4333ZM3.75003 4.78334L2.5667 4.11667C2.78892 3.81667 3.02781 3.53889 3.28337 3.28334C3.53892 3.02778 3.8167 2.78889 4.1167 2.56667L4.78337 3.75C4.59448 3.90556 4.41403 4.06934 4.24203 4.24134C4.06959 4.41378 3.90559 4.59445 3.75003 4.78334ZM7.33337 14.6333C6.97781 14.6 6.62514 14.5389 6.27537 14.45C5.92514 14.3611 5.58892 14.2389 5.2667 14.0833L5.93337 12.9167C6.15559 13.0056 6.38337 13.0804 6.6167 13.1413C6.85003 13.2027 7.08892 13.25 7.33337 13.2833V14.6333ZM5.93337 3.08334L5.2667 1.91667C5.58892 1.76111 5.92514 1.63889 6.27537 1.55C6.62514 1.46111 6.97781 1.4 7.33337 1.36667V2.71667C7.08892 2.75 6.85003 2.79711 6.6167 2.858C6.38337 2.91934 6.15559 2.99445 5.93337 3.08334ZM8.6667 14.6333V13.2833C8.91114 13.25 9.15003 13.2027 9.38336 13.1413C9.6167 13.0804 9.84448 13.0056 10.0667 12.9167L10.7334 14.0833C10.4111 14.2389 10.0751 14.3611 9.72537 14.45C9.37514 14.5389 9.02225 14.6 8.6667 14.6333ZM10.0667 3.08334C9.84448 2.99445 9.6167 2.91934 9.38336 2.858C9.15003 2.79711 8.91114 2.75 8.6667 2.71667V1.36667C9.02225 1.4 9.37514 1.46111 9.72537 1.55C10.0751 1.63889 10.4111 1.76111 10.7334 1.91667L10.0667 3.08334ZM11.8834 13.4333L11.2167 12.25C11.4056 12.0944 11.5863 11.9304 11.7587 11.758C11.9307 11.586 12.0945 11.4056 12.25 11.2167L13.4334 11.8833C13.2111 12.1833 12.9723 12.4638 12.7167 12.7247C12.4611 12.986 12.1834 13.2222 11.8834 13.4333ZM12.25 4.78334C12.0945 4.59445 11.9307 4.41378 11.7587 4.24134C11.5863 4.06934 11.4056 3.90556 11.2167 3.75L11.8834 2.56667C12.1834 2.77778 12.4611 3.01111 12.7167 3.26667C12.9723 3.52222 13.2056 3.8 13.4167 4.1L12.25 4.78334ZM13.2834 7.33333C13.25 7.08889 13.2029 6.85 13.142 6.61667C13.0807 6.38334 13.0056 6.15556 12.9167 5.93333L14.0834 5.25C14.2278 5.58333 14.3474 5.92489 14.442 6.27467C14.5363 6.62489 14.6 6.97778 14.6334 7.33333H13.2834ZM14.0834 10.7333L12.9167 10.0667C13.0056 9.84445 13.0807 9.61667 13.142 9.38333C13.2029 9.15 13.25 8.91111 13.2834 8.66667H14.6334C14.6 9.02222 14.5389 9.37489 14.45 9.72467C14.3611 10.0749 14.2389 10.4111 14.0834 10.7333Z" fill="#1C1B1F"/>
</g>
</svg>
