<svg width="16" height="16" viewBox="0 0 16 16" fill="none" xmlns="http://www.w3.org/2000/svg">
<mask id="mask0_6_97" style="mask-type:alpha" maskUnits="userSpaceOnUse" x="0" y="0" width="16" height="16">
<rect width="16" height="16" fill="#D9D9D9"/>
</mask>
<g mask="url(#mask0_6_97)">
<path d="M9.3 14.6C9.13334 14.6889 8.964 14.7026 8.792 14.6413C8.61956 14.5804 8.48889 14.4666 8.4 14.3L7.4 12.3C7.31111 12.1333 7.29734 11.964 7.35867 11.792C7.41956 11.6195 7.53334 11.4889 7.7 11.4C7.86667 11.3111 8.036 11.2973 8.208 11.3586C8.38045 11.4195 8.51111 11.5333 8.6 11.7L9.6 13.7C9.68889 13.8666 9.70289 14.036 9.642 14.208C9.58067 14.3804 9.46667 14.5111 9.3 14.6ZM13.3 14.6C13.1333 14.6889 12.964 14.7026 12.792 14.6413C12.6196 14.5804 12.4889 14.4666 12.4 14.3L11.4 12.3C11.3111 12.1333 11.2973 11.964 11.3587 11.792C11.4196 11.6195 11.5333 11.4889 11.7 11.4C11.8667 11.3111 12.036 11.2973 12.208 11.3586C12.3804 11.4195 12.5111 11.5333 12.6 11.7L13.6 13.7C13.6889 13.8666 13.7029 14.036 13.642 14.208C13.5807 14.3804 13.4667 14.5111 13.3 14.6ZM5.3 14.6C5.13334 14.6889 4.964 14.7026 4.792 14.6413C4.61956 14.5804 4.48889 14.4666 4.4 14.3L3.4 12.3C3.31111 12.1333 3.29734 11.964 3.35867 11.792C3.41956 11.6195 3.53334 11.4889 3.7 11.4C3.86667 11.3111 4.036 11.2973 4.208 11.3586C4.38045 11.4195 4.51111 11.5333 4.6 11.7L5.6 13.7C5.68889 13.8666 5.70289 14.036 5.642 14.208C5.58067 14.3804 5.46667 14.5111 5.3 14.6ZM5 10.6666C3.98889 10.6666 3.12511 10.3082 2.40867 9.59131C1.69178 8.87487 1.33334 8.01109 1.33334 6.99998C1.33334 6.07776 1.63889 5.2722 2.25 4.58331C2.86111 3.89442 3.61667 3.48887 4.51667 3.36665C4.87222 2.73331 5.35845 2.23598 5.97534 1.87465C6.59178 1.51376 7.26667 1.33331 8 1.33331C9 1.33331 9.86934 1.65287 10.608 2.29198C11.3471 2.93065 11.7944 3.72776 11.95 4.68331C12.7167 4.74998 13.3611 5.06665 13.8833 5.63331C14.4056 6.19998 14.6667 6.87776 14.6667 7.66665C14.6667 8.49998 14.3751 9.20842 13.792 9.79198C13.2084 10.3751 12.5 10.6666 11.6667 10.6666H5ZM5 9.33331H11.6667C12.1333 9.33331 12.5278 9.1722 12.85 8.84998C13.1722 8.52776 13.3333 8.13331 13.3333 7.66665C13.3333 7.19998 13.1722 6.80554 12.85 6.48331C12.5278 6.16109 12.1333 5.99998 11.6667 5.99998H10.6667V5.33331C10.6667 4.59998 10.4056 3.9722 9.88334 3.44998C9.36111 2.92776 8.73334 2.66665 8 2.66665C7.46667 2.66665 6.98045 2.81109 6.54134 3.09998C6.10267 3.38887 5.77222 3.77776 5.55 4.26665L5.38334 4.66665H4.96667C4.33334 4.68887 3.79178 4.92487 3.342 5.37465C2.89178 5.82487 2.66667 6.36665 2.66667 6.99998C2.66667 7.64442 2.89445 8.19442 3.35 8.64998C3.80556 9.10554 4.35556 9.33331 5 9.33331Z" fill="#1C1B1F"/>
</g>
</svg>
