<svg width="16" height="16" viewBox="0 0 16 16" fill="none" xmlns="http://www.w3.org/2000/svg">
<mask id="mask0_6_91" style="mask-type:alpha" maskUnits="userSpaceOnUse" x="0" y="0" width="16" height="16">
<rect width="16" height="16" fill="#D9D9D9"/>
</mask>
<g mask="url(#mask0_6_91)">
<path d="M1.33334 13.5667V12.2667C1.65557 12.2667 1.93045 12.2167 2.15801 12.1167C2.38601 12.0167 2.61668 11.9085 2.85001 11.792C3.08334 11.6751 3.34179 11.5694 3.62534 11.4747C3.90845 11.3805 4.25557 11.3334 4.66668 11.3334C5.0889 11.3334 5.43601 11.3805 5.70801 11.4747C5.98045 11.5694 6.23334 11.6751 6.46668 11.792C6.70001 11.9085 6.93334 12.0167 7.16668 12.1167C7.40001 12.2167 7.67779 12.2667 8.00001 12.2667C8.32223 12.2667 8.60001 12.2167 8.83334 12.1167C9.06668 12.0167 9.30001 11.9085 9.53334 11.792C9.76668 11.6751 10.0222 11.5694 10.3 11.4747C10.5778 11.3805 10.9222 11.3334 11.3333 11.3334C11.7556 11.3334 12.1056 11.3805 12.3833 11.4747C12.6611 11.5694 12.9167 11.6751 13.15 11.792C13.3833 11.9085 13.6167 12.0167 13.85 12.1167C14.0833 12.2167 14.3556 12.2667 14.6667 12.2667V13.5667C14.2445 13.5667 13.8918 13.5167 13.6087 13.4167C13.3251 13.3167 13.0667 13.2082 12.8333 13.0913C12.6 12.9749 12.3722 12.8696 12.15 12.7754C11.9278 12.6807 11.6556 12.6334 11.3333 12.6334C11.0222 12.6334 10.7529 12.6807 10.5253 12.7754C10.2973 12.8696 10.0693 12.9749 9.84134 13.0913C9.61379 13.2082 9.35845 13.3167 9.07534 13.4167C8.79179 13.5167 8.43334 13.5667 8.00001 13.5667C7.56668 13.5667 7.20823 13.5167 6.92468 13.4167C6.64157 13.3167 6.38623 13.2082 6.15868 13.0913C5.93068 12.9749 5.70557 12.8696 5.48334 12.7754C5.26112 12.6807 4.9889 12.6334 4.66668 12.6334C4.35557 12.6334 4.08623 12.6807 3.85868 12.7754C3.63068 12.8696 3.40001 12.9749 3.16668 13.0913C2.93334 13.2082 2.67512 13.3167 2.39201 13.4167C2.10845 13.5167 1.75557 13.5667 1.33334 13.5667ZM1.33334 10.6V9.30002C1.65557 9.30002 1.93045 9.25002 2.15801 9.15002C2.38601 9.05002 2.61668 8.94179 2.85001 8.82535C3.08334 8.70846 3.34179 8.60268 3.62534 8.50802C3.90845 8.41379 4.25557 8.36668 4.66668 8.36668C5.0889 8.36668 5.43601 8.41379 5.70801 8.50802C5.98045 8.60268 6.23334 8.70846 6.46668 8.82535C6.70001 8.94179 6.93334 9.05002 7.16668 9.15002C7.40001 9.25002 7.67779 9.30002 8.00001 9.30002C8.32223 9.30002 8.60001 9.25002 8.83334 9.15002C9.06668 9.05002 9.30001 8.94179 9.53334 8.82535C9.76668 8.70846 10.0222 8.60268 10.3 8.50802C10.5778 8.41379 10.9222 8.36668 11.3333 8.36668C11.7556 8.36668 12.1056 8.41379 12.3833 8.50802C12.6611 8.60268 12.9167 8.70846 13.15 8.82535C13.3833 8.94179 13.6167 9.05002 13.85 9.15002C14.0833 9.25002 14.3556 9.30002 14.6667 9.30002V10.6C14.2445 10.6 13.8918 10.55 13.6087 10.45C13.3251 10.35 13.0667 10.2418 12.8333 10.1253C12.6 10.0085 12.3722 9.90268 12.15 9.80802C11.9278 9.71379 11.6556 9.66668 11.3333 9.66668C11.0111 9.66668 10.7362 9.71379 10.5087 9.80802C10.2807 9.90268 10.0529 10.0085 9.82534 10.1253C9.59734 10.2418 9.34445 10.35 9.06668 10.45C8.7889 10.55 8.43334 10.6 8.00001 10.6C7.56668 10.6 7.20823 10.55 6.92468 10.45C6.64157 10.35 6.38623 10.2418 6.15868 10.1253C5.93068 10.0085 5.70557 9.90268 5.48334 9.80802C5.26112 9.71379 4.9889 9.66668 4.66668 9.66668C4.35557 9.66668 4.08623 9.71379 3.85868 9.80802C3.63068 9.90268 3.40001 10.0085 3.16668 10.1253C2.93334 10.2418 2.67512 10.35 2.39201 10.45C2.10845 10.55 1.75557 10.6 1.33334 10.6ZM1.33334 7.63335V6.33335C1.65557 6.33335 1.93045 6.28335 2.15801 6.18335C2.38601 6.08335 2.61668 5.97491 2.85001 5.85802C3.08334 5.74157 3.34179 5.63602 3.62534 5.54135C3.90845 5.44713 4.25557 5.40002 4.66668 5.40002C5.0889 5.40002 5.43601 5.44713 5.70801 5.54135C5.98045 5.63602 6.23334 5.74157 6.46668 5.85802C6.70001 5.97491 6.93334 6.08335 7.16668 6.18335C7.40001 6.28335 7.67779 6.33335 8.00001 6.33335C8.32223 6.33335 8.60001 6.28335 8.83334 6.18335C9.06668 6.08335 9.30001 5.97491 9.53334 5.85802C9.76668 5.74157 10.0222 5.63602 10.3 5.54135C10.5778 5.44713 10.9222 5.40002 11.3333 5.40002C11.7556 5.40002 12.1056 5.44713 12.3833 5.54135C12.6611 5.63602 12.9167 5.74157 13.15 5.85802C13.3833 5.97491 13.6167 6.08335 13.85 6.18335C14.0833 6.28335 14.3556 6.33335 14.6667 6.33335V7.63335C14.2445 7.63335 13.8918 7.58335 13.6087 7.48335C13.3251 7.38335 13.0667 7.27513 12.8333 7.15868C12.6 7.04179 12.3722 6.93602 12.15 6.84135C11.9278 6.74713 11.6556 6.70002 11.3333 6.70002C11.0222 6.70002 10.7529 6.74713 10.5253 6.84135C10.2973 6.93602 10.0693 7.04179 9.84134 7.15868C9.61379 7.27513 9.35845 7.38335 9.07534 7.48335C8.79179 7.58335 8.43334 7.63335 8.00001 7.63335C7.56668 7.63335 7.20823 7.58335 6.92468 7.48335C6.64157 7.38335 6.38623 7.27513 6.15868 7.15868C5.93068 7.04179 5.70557 6.93602 5.48334 6.84135C5.26112 6.74713 4.9889 6.70002 4.66668 6.70002C4.35557 6.70002 4.08623 6.74713 3.85868 6.84135C3.63068 6.93602 3.40001 7.04179 3.16668 7.15868C2.93334 7.27513 2.67512 7.38335 2.39201 7.48335C2.10845 7.58335 1.75557 7.63335 1.33334 7.63335ZM1.33334 4.66668V3.36668C1.65557 3.36668 1.93045 3.31668 2.15801 3.21668C2.38601 3.11668 2.61668 3.00824 2.85001 2.89135C3.08334 2.77491 3.34179 2.66935 3.62534 2.57468C3.90845 2.48046 4.25557 2.43335 4.66668 2.43335C5.0889 2.43335 5.43601 2.48046 5.70801 2.57468C5.98045 2.66935 6.23334 2.77491 6.46668 2.89135C6.70001 3.00824 6.93334 3.11668 7.16668 3.21668C7.40001 3.31668 7.67779 3.36668 8.00001 3.36668C8.32223 3.36668 8.60001 3.31668 8.83334 3.21668C9.06668 3.11668 9.30001 3.00824 9.53334 2.89135C9.76668 2.77491 10.0222 2.66935 10.3 2.57468C10.5778 2.48046 10.9222 2.43335 11.3333 2.43335C11.7556 2.43335 12.1056 2.48046 12.3833 2.57468C12.6611 2.66935 12.9167 2.77491 13.15 2.89135C13.3833 3.00824 13.6167 3.11668 13.85 3.21668C14.0833 3.31668 14.3556 3.36668 14.6667 3.36668V4.66668C14.2445 4.66668 13.8918 4.61668 13.6087 4.51668C13.3251 4.41668 13.0667 4.30824 12.8333 4.19135C12.6 4.07491 12.3722 3.96935 12.15 3.87468C11.9278 3.78046 11.6556 3.73335 11.3333 3.73335C11.0222 3.73335 10.7529 3.78046 10.5253 3.87468C10.2973 3.96935 10.0693 4.07491 9.84134 4.19135C9.61379 4.30824 9.35845 4.41668 9.07534 4.51668C8.79179 4.61668 8.43334 4.66668 8.00001 4.66668C7.56668 4.66668 7.20823 4.61668 6.92468 4.51668C6.64157 4.41668 6.38623 4.30824 6.15868 4.19135C5.93068 4.07491 5.70557 3.96935 5.48334 3.87468C5.26112 3.78046 4.9889 3.73335 4.66668 3.73335C4.35557 3.73335 4.08623 3.78046 3.85868 3.87468C3.63068 3.96935 3.40001 4.07491 3.16668 4.19135C2.93334 4.30824 2.67512 4.41668 2.39201 4.51668C2.10845 4.61668 1.75557 4.66668 1.33334 4.66668Z" fill="#1C1B1F"/>
</g>
</svg>
